<?xml version="1.0" encoding="UTF-8"?>
<svg width="40px" height="40px" viewBox="0 0 40 40" version="1.1" xmlns="http://www.w3.org/2000/svg" xmlns:xlink="http://www.w3.org/1999/xlink">
    <!-- Generator: Sketch 53.2 (72643) - https://sketchapp.com -->
    <title>Icons/Assets/Crypto/BTC</title>
    <desc>Created with Sketch.</desc>
    <defs>
        <circle id="path-1" cx="20" cy="20" r="20"></circle>
        <circle id="path-3" cx="20" cy="20" r="20"></circle>
    </defs>
    <g id="Landing-page---Desktop" stroke="none" stroke-width="1" fill="none" fill-rule="evenodd">
        <g transform="translate(-165.000000, -2031.000000)" id="Icons/Assets/Crypto/BTC">
            <g transform="translate(165.000000, 2031.000000)">
                <g id="Asset">
                    <mask id="mask-2" fill="white">
                        <use xlink:href="#path-1"></use>
                    </mask>
                    <use id="Mask" fill="#BCCAD8" xlink:href="#path-1"></use>
                    <g id="bitcoin-cash-square-crop" mask="url(#mask-2)" fill-rule="nonzero">
                        <g transform="translate(-0.000000, 0.000000)">
                            <path d="M14.6177157,0.00934010152 L0.0234010152,0.00934010152 L0.0234010152,14.7055838 C1.90507614,7.56852792 7.50025381,1.93908629 14.6177157,0.00934010152 Z" id="Path" fill="#F7941D"></path>
                            <path d="M40.0781218,14.7055838 L40.0781218,0.00934010152 L25.4838071,0.00934010152 C32.6012183,1.93908629 38.1964467,7.56852792 40.0781218,14.7055838 Z" id="Path" fill="#F7941D"></path>
                            <path d="M25.4838071,39.9906599 L40.0781218,39.9906599 L40.0781218,25.2944162 C38.1964467,32.4314721 32.6012183,38.0609137 25.4838071,39.9906599 Z" id="Path" fill="#F7941D"></path>
                            <path d="M0.0234010152,25.2944162 L0.0234010152,39.9906599 L14.6177157,39.9906599 C7.50025381,38.0609137 1.90507614,32.4314721 0.0234010152,25.2944162 Z" id="Path" fill="#F7941D"></path>
                            <circle id="Oval" fill="#F7941D" cx="20.0507614" cy="20" r="17.0050761"></circle>
                            <path d="M28.026599,20.7062944 L28.0171066,20.688731 L28.015533,20.6857868 C28.009797,20.6681218 28.0053807,20.6495939 27.9989848,20.6305076 L27.9981726,20.6289848 L27.9973604,20.6275127 L27.9965482,20.6260406 L27.995736,20.6245685 L27.9949239,20.6230964 L27.9941117,20.6216244 L27.9924873,20.6186802 C27.7929235,19.9511515 27.3972484,19.3590538 26.8568528,18.9192893 L26.8560914,18.9178173 C26.8401015,18.9056345 26.8232995,18.8919289 26.8072589,18.8798985 L26.7851777,18.8634518 L26.7691878,18.8513198 L26.762335,18.845533 L26.7471066,18.8348223 L26.7402538,18.8290863 L26.7250254,18.8183756 L26.7181726,18.8126396 L26.7021827,18.8005076 L26.6938071,18.7954315 L26.6778173,18.7832995 L26.6694416,18.7782234 L26.6521827,18.7668528 L26.6438071,18.7617766 L26.6336548,18.7465482 L26.6245178,18.7401015 L26.6072589,18.728731 L26.5981726,18.7222843 L26.5808629,18.7108629 L26.5717766,18.704467 L26.5545178,18.6930457 L26.5453807,18.686599 L26.5271066,18.6736548 L26.5180203,18.6672081 L26.4983249,18.6551269 L26.4891878,18.648731 L26.4695431,18.636599 L26.4604061,18.630203 L26.4407107,18.6180711 L26.4316244,18.6116751 L26.4119289,18.5995431 L26.4013198,18.5939594 L26.3816244,18.5818782 L26.371066,18.5762437 L26.3498477,18.5649746 L26.3392893,18.5593909 L26.3173096,18.5466497 L26.3067513,18.541066 L26.2847716,18.5283756 L26.2741624,18.5227411 L26.2521827,18.5100508 L26.2408122,18.5029949 L26.2188325,18.4902538 L26.2074112,18.483198 L26.1840102,18.4712183 L26.1726396,18.4641624 L26.1491878,18.4521827 L26.1333503,18.4435533 L26.1325381,18.4420812 C26.1211675,18.4350254 26.1091371,18.4301015 26.0977157,18.4229949 C25.611514,18.1730885 25.0865475,18.007213 24.5450254,17.9323858 C24.696895,17.7691598 24.8359694,17.5944809 24.9610152,17.4098985 L24.9809645,17.3802538 L24.9824365,17.3794416 L24.9916751,17.3650254 L25.0037563,17.3453299 L25.010203,17.3361929 L25.0222843,17.3165482 L25.0286802,17.3074112 L25.0408122,17.2877157 L25.0472081,17.2786294 L25.0593401,17.258934 L25.065736,17.249797 L25.0778173,17.2301015 L25.0842132,17.2210152 L25.0948223,17.2020305 L25.101269,17.1929442 L25.1118274,17.1739594 L25.1169036,17.1655838 L25.1274619,17.1466497 L25.1325381,17.1382741 L25.1430964,17.1193401 L25.1481726,17.1109645 L25.1573096,17.0927919 L25.1623858,17.0844162 L25.1714721,17.0662944 L25.1765482,17.0579188 L25.1856345,17.039797 L25.1907107,17.0314213 L25.2006091,17.0147208 L25.2056853,17.0063452 L25.2158376,16.9896954 L25.2209137,16.9813198 L25.2295939,16.9654822 L25.2346701,16.9571066 L25.2432995,16.9412183 L25.246802,16.9337056 L25.2554822,16.9178173 L25.258934,16.9102538 L25.2676142,16.8944162 L25.271066,16.8868528 L25.2797462,16.8710152 L25.2832487,16.8634518 L25.290203,16.8482234 L25.2937056,16.8406599 L25.3007107,16.8254315 L25.3042132,16.817868 L25.3112183,16.8026396 L25.3147208,16.7951269 L25.3223858,16.7778173 L25.3328934,16.7552284 C25.3405584,16.7379188 25.3467513,16.7213198 25.354467,16.7039594 L25.3559391,16.7031472 C25.5889319,16.1288048 25.6435542,15.4976062 25.5126904,14.8917766 L25.5118782,14.8903046 L25.5102538,14.8873604 L25.5094416,14.8858883 L25.5086802,14.8844162 L25.507868,14.8829442 L25.5070558,14.8814721 L25.5061929,14.88 L25.5054315,14.8785787 C25.5019289,14.8615228 25.4984264,14.8445178 25.4935025,14.8282234 L25.4935025,14.8245178 L25.4926904,14.8230457 L25.4918782,14.8215736 L25.491066,14.8201523 L25.4918782,14.8215736 L25.4847716,14.8084264 C25.4796954,14.7847716 25.4746193,14.7609137 25.4670051,14.736802 C25.4619289,14.7131472 25.4544162,14.6887817 25.4477665,14.665736 L25.4390863,14.6496447 L25.4375127,14.6467005 C25.4324365,14.6305076 25.4276142,14.6142132 25.4226396,14.5980203 L25.4217766,14.5965482 L25.4209645,14.5950761 L25.4201523,14.5936041 L25.4193909,14.592132 L25.4185787,14.5907107 L25.4177157,14.5892386 L25.4169543,14.5877665 C25.239699,13.9938025 24.8877018,13.4669742 24.406802,13.0758883 L24.4059391,13.0743655 C24.3922335,13.0628426 24.3770051,13.052132 24.3632487,13.0407107 L24.344264,13.0263452 L24.3290355,13.0151777 L24.3221827,13.0094416 L24.3091878,12.9992893 L24.302335,12.9935025 L24.2893909,12.9833503 L24.2825381,12.9776142 L24.2681218,12.9683756 L24.2612183,12.9626396 L24.2459898,12.9519289 L24.2391371,12.9461929 L24.2239086,12.9354822 L24.2170051,12.9297462 L24.2017766,12.9190355 L24.193401,12.9139594 L24.1781726,12.9032487 L24.169797,12.8981726 L24.1545685,12.8874619 L24.1461929,12.8823858 L24.1295431,12.8724873 L24.1211675,12.8674112 L24.1045178,12.8575127 L24.0961421,12.8524365 L24.0794416,12.8425381 L24.071066,12.8374619 L24.0544162,12.8273096 L24.0460406,12.8222335 L24.0287817,12.8108122 L24.0204061,12.805736 L24.0028934,12.7943655 L23.9945178,12.7892893 L23.9755838,12.7786802 L23.9672081,12.7736041 L23.9482741,12.7629949 L23.9391371,12.7565482 L23.920203,12.7459898 L23.9111168,12.7395431 L23.8921827,12.7289848 L23.8830457,12.7225381 L23.863401,12.7104569 L23.8527919,12.7048223 L23.8330964,12.6927411 L23.8225381,12.6871574 L23.8013198,12.6758376 L23.7907614,12.6702538 L23.7695431,12.6589848 L23.7543147,12.6519797 L23.7535025,12.6505076 L23.7217259,12.6336548 C22.7930964,12.1510152 21.6132995,12.0056853 20.4262944,12.310203 L20.1175127,12.3894924 L19.3350254,9.35081218 L17.5252792,9.81477157 L18.3019289,12.844264 L16.8541624,13.2156345 L16.0750761,10.1960406 L14.2653299,10.6598985 L15.0437563,13.6891371 L11.3113198,14.6497462 L11.8079188,16.5799492 L13.3118274,16.1937056 C13.5508591,16.1320801 13.8045815,16.1679368 14.0171751,16.2933872 C14.2297687,16.4188377 14.3838179,16.6236048 14.4454315,16.8626396 L14.4458376,16.8643655 L14.4458376,16.8643655 L16.5335533,24.9867005 C16.618676,25.318858 16.418832,25.6572303 16.0868528,25.7430457 L14.7690863,26.0820305 L14.8464975,28.3776142 L18.5741624,27.4195431 L19.3628426,30.4432995 L21.1717766,29.977868 L20.3925888,26.9471066 L21.8403553,26.575736 L22.6195431,29.6061929 L24.4284772,29.1407614 L23.6467513,26.0982234 C23.9533503,26.0182234 24.2169543,25.9499492 24.3993909,25.9027919 C25.7371066,25.5586802 26.8188325,24.774264 27.473401,23.7964975 L27.495533,23.7638579 L27.4970051,23.7630457 L27.5077157,23.7478173 L27.5219289,23.7250761 L27.5289848,23.7136548 L27.543198,23.6909137 L27.5503046,23.6794924 L27.5629949,23.6575127 L27.5700508,23.6461421 L27.5827411,23.6241624 L27.5883756,23.6135533 L27.601066,23.5915736 L27.6067005,23.5810152 L27.6193909,23.5590355 L27.6249746,23.5484264 L27.6362437,23.5272589 L27.6418782,23.5166497 L27.6531472,23.4954822 L27.658731,23.4848731 L27.6708629,23.4651777 L27.6764467,23.4546193 L27.6885279,23.4349239 L27.6941624,23.4243655 L27.7047208,23.4053807 L27.7103553,23.3948223 L27.7209137,23.3758883 L27.7265482,23.3653299 L27.7371066,23.3463959 L27.7414213,23.336599 L27.7520305,23.317665 L27.7563452,23.307868 L27.7654315,23.2897462 L27.7705076,23.2813706 L27.7796447,23.2632487 L27.7847208,23.2548731 L27.7938071,23.2367005 L27.7988832,23.2283249 L27.8079695,23.210203 L27.8130457,23.2018274 L27.8221827,23.1837056 L27.8272589,23.1753299 L27.8363959,23.1571574 L27.8414721,23.1487817 L27.8491371,23.1315228 L27.8542132,23.1231472 L27.8618782,23.1058883 L27.8653807,23.0983249 L27.8737563,23.078731 L27.8849746,23.0538071 C27.8933503,23.0342132 27.9024365,23.0160406 27.9092893,22.9972589 L27.91,22.9949746 C28.1718252,22.3488938 28.2334064,21.6390295 28.0867513,20.9575127 L28.0859391,20.9560406 L28.0851269,20.9545685 L28.0843147,20.9530964 L28.0835025,20.9516244 L28.0826904,20.9501523 L28.0818782,20.9486802 L28.081066,20.9472081 L28.0802538,20.945736 L28.0673096,20.8903046 L28.0673096,20.886599 L28.0665482,20.8851269 L28.065736,20.8836548 L28.0648731,20.8821827 L28.0640609,20.8807107 L28.0632995,20.8792386 L28.0624873,20.8777665 L28.0616751,20.8762944 L28.0608629,20.8748223 L28.0600508,20.873401 L28.0592386,20.8719289 L28.0584264,20.8704569 L28.057665,20.8689848 L28.0568528,20.8675127 L28.0536548,20.8616751 C28.0469543,20.8351269 28.0416244,20.8077665 28.0333503,20.7818782 C28.0320812,20.765736 28.0282234,20.7375127 28.026599,20.7062944 Z M17.3929442,15.2728934 C17.7017259,15.1936548 18.9783756,14.8729949 19.3993401,14.763401 C20.0686294,14.5920812 20.727868,14.6585787 21.2431472,14.9065482 L21.2604569,14.9142132 L21.2604569,14.9142132 L21.2679695,14.9177157 L21.2785787,14.9232995 L21.2836548,14.9261421 L21.2942132,14.9317259 L21.2992893,14.9345685 L21.3098477,14.9401523 L21.3149239,14.9429949 L21.325533,14.9485787 L21.3306091,14.9513706 L21.3412183,14.9570051 L21.3462944,14.959797 L21.3569036,14.9654315 L21.3619797,14.9682234 L21.3725381,14.9738579 L21.3776142,14.9766497 L21.3881726,14.9822843 L21.3932487,14.9850761 L21.4038071,14.9907107 L21.4088832,14.9935025 L21.4180203,14.9999492 L21.4230964,15.0027411 L21.4321827,15.0091878 L21.4372589,15.0119797 L21.4463452,15.0184264 L21.4514213,15.0212183 L21.459797,15.0262944 L21.4648731,15.0290863 L21.4732487,15.0341624 L21.4783249,15.0369543 L21.4867005,15.0420305 L21.4917766,15.0448223 L21.5001523,15.0498985 L21.5052284,15.0526904 L21.5136041,15.0577665 L21.5174619,15.0614213 L21.5258376,15.0664975 L21.5288832,15.0685787 L21.5372589,15.0736548 L21.5402538,15.0757868 L21.5486294,15.0808629 L21.5516751,15.0829442 L21.5600508,15.0880203 L21.5630457,15.0901523 L21.5699492,15.0958883 L21.5729442,15.0980203 L21.5813198,15.1030964 L21.5927411,15.110203 C21.6011168,15.1152792 21.608731,15.1224365 21.6171066,15.1274619 L21.6171066,15.1274619 C21.8807426,15.3264295 22.0744666,15.6038992 22.1704061,15.9199492 L22.1704061,15.9199492 L22.1727411,15.924264 C22.1751777,15.9323858 22.1784772,15.9419289 22.1809137,15.9501523 L22.1817259,15.9516751 L22.1864975,15.9603046 C22.1898477,15.9736041 22.1939086,15.9846701 22.1973604,15.9979188 C22.2010528,16.0114874 22.203466,16.0253721 22.2045685,16.0393909 L22.2092893,16.0480203 L22.2101015,16.0494924 C22.2114092,16.0585552 22.2136722,16.0674541 22.2168528,16.0760406 L22.2191878,16.0803553 L22.2191878,16.0803553 C22.2870075,16.4035255 22.2509593,16.7398626 22.1161929,17.0413198 L22.1161929,17.0413198 L22.1043147,17.0684772 L22.0980203,17.0814213 L22.0929442,17.089797 L22.0915736,17.0943147 L22.0880711,17.1018782 L22.0867005,17.1063959 L22.0816244,17.1147716 L22.0802538,17.1191371 L22.0751777,17.1275127 L22.0738071,17.1320305 L22.068731,17.1404061 L22.0673604,17.1447208 L22.0622843,17.1530964 L22.0609137,17.1576142 L22.0558376,17.1659898 L22.0544162,17.1705584 L22.0493401,17.178934 L22.0464975,17.1840102 L22.0414213,17.1923858 L22.0385787,17.1974619 L22.0335025,17.2058376 L22.0307107,17.2109137 L22.0256345,17.2192893 L22.0228426,17.2243655 L22.0163959,17.2334518 L22.0136041,17.2385279 L22.0071574,17.247665 L22.0043655,17.2527411 L21.9979188,17.2618274 L21.9951269,17.2669036 L21.9886802,17.2759898 L21.9858883,17.281066 L21.9794416,17.290203 L21.9766497,17.2952792 L21.970203,17.3044162 L21.9674112,17.3094924 L21.9609645,17.3185787 L21.9581726,17.3236548 L21.9517259,17.3327411 L21.948934,17.3378173 L21.9410152,17.3477157 L21.9382234,17.3527919 L21.9303046,17.3626904 L21.9275127,17.3677665 L21.9195939,17.377665 L21.916802,17.3827411 L21.9088832,17.3926396 L21.9031472,17.3994924 L21.9031472,17.3994924 L21.8924365,17.4147208 C21.5595939,17.8811168 21.014264,18.2578173 20.3449746,18.4290863 C19.923198,18.5370558 18.6498985,18.8710152 18.3413706,18.9503046 L17.3929442,15.2728934 Z M24.4670051,21.5 L24.4717766,21.5086294 L24.4725888,21.5101015 C24.4743655,21.5202538 24.4769036,21.5285787 24.4786802,21.538934 L24.4786802,21.538934 L24.4794924,21.5404569 L24.4794924,21.5404569 L24.4803046,21.5419289 L24.4811675,21.543401 L24.4819797,21.5448731 L24.4819797,21.5448731 C24.5533593,21.9011013 24.5020652,22.2710018 24.3364467,22.5943655 L24.3364467,22.5943655 L24.3202538,22.6238579 L24.3124873,22.6375127 L24.3068528,22.6480711 L24.3040609,22.6531472 L24.2989848,22.6615228 L24.2961929,22.666599 L24.2911168,22.6749746 L24.2883249,22.6800508 L24.2818782,22.6891371 L24.2790863,22.6942132 L24.2726396,22.7032995 L24.2698477,22.7083756 L24.263401,22.7175127 L24.2606091,22.7225888 L24.2541624,22.7316751 L24.2513706,22.7367513 L24.2449239,22.7458376 L24.242132,22.7509137 L24.2356853,22.7600508 L24.2328934,22.7651269 L24.2264467,22.774264 L24.2236548,22.7793401 L24.2172081,22.7884264 L24.2144162,22.7935025 L24.2079695,22.8025888 L24.2051777,22.807665 L24.1972589,22.8175635 L24.194467,22.8226396 L24.1865482,22.8325381 L24.1837563,22.8376142 L24.1766497,22.8490355 L24.1738579,22.8541117 L24.1667005,22.8654822 L24.1639086,22.8705584 L24.1568528,22.8819797 L24.1524873,22.8880711 L24.1454315,22.8994416 L24.1411168,22.905533 L24.1324873,22.917665 L24.1281726,22.9237563 L24.1195431,22.9358883 L24.1151777,22.9419797 L24.1065482,22.9541117 L24.1022335,22.960203 L24.0936041,22.972335 L24.0892893,22.9784264 L24.0806599,22.9905584 L24.0734518,22.9982741 L24.0734518,22.9982741 L24.059797,23.0150254 C23.655533,23.5312183 23.0036041,23.9557868 22.2116244,24.1590355 C21.712335,24.2879695 20.203401,24.6825888 19.8362944,24.7762944 L18.8090355,20.7793909 C19.1753807,20.6843655 20.6884772,20.3044162 21.1877665,20.1753299 C21.9796447,19.9722843 22.7570051,20.0296954 23.3580203,20.2862944 L23.3776142,20.2946701 L23.3776142,20.2946701 L23.3874112,20.2989848 L23.4017766,20.304467 L23.4084772,20.3064467 L23.4214721,20.3127411 L23.4281726,20.3147208 L23.4411675,20.321066 L23.447868,20.3230457 L23.4608122,20.3293401 L23.4658883,20.332132 L23.4788325,20.3384264 L23.4839086,20.341269 L23.4968528,20.3475635 L23.5019289,20.3503553 L23.5148731,20.3566497 L23.5199492,20.3594924 L23.5305584,20.3650761 L23.5356345,20.3679188 L23.5462437,20.3735025 L23.5513198,20.3763452 L23.5618782,20.3819289 L23.5669543,20.3847208 L23.5775127,20.3903553 L23.5825888,20.3931472 L23.5931472,20.3987817 L23.5982234,20.4015736 L23.6088325,20.4072081 L23.6139086,20.41 L23.6245178,20.4156345 L23.6295939,20.4184264 L23.6401523,20.4240609 L23.6452284,20.4268528 L23.6557868,20.4324365 L23.6608629,20.4352792 L23.6699492,20.4416751 L23.6750254,20.4445178 L23.6841624,20.4509645 L23.6892386,20.4537563 L23.6983756,20.460203 L23.7034518,20.4629949 L23.7125381,20.4694416 L23.7176142,20.4722335 L23.7267513,20.4786802 L23.7318274,20.4814721 L23.740203,20.4865482 L23.7452792,20.4893401 L23.7544162,20.4957868 L23.7665482,20.5044162 C23.7756345,20.5108629 23.7862437,20.5164975 23.7954315,20.5228934 L23.7954315,20.5228934 C24.0980628,20.7269305 24.3225832,21.0275377 24.432335,21.3756345 L24.432335,21.3756345 L24.4354822,21.3814721 C24.438731,21.3910152 24.4412183,21.3991878 24.444467,21.408731 L24.4452792,21.4101523 L24.45,21.4188325 C24.453401,21.432132 24.4567513,21.4453807 24.4609645,21.460203 C24.4684264,21.463401 24.4695939,21.4797462 24.4673096,21.4998985 L24.4670051,21.5 Z" id="Shape" fill="#FFFFFF"></path>
                        </g>
                    </g>
                    <rect id="Rectangle-5" fill="#F7931A" mask="url(#mask-2)" x="0" y="0" width="40" height="40"></rect>
                    <mask id="mask-4" fill="white">
                        <use xlink:href="#path-3"></use>
                    </mask>
                    <circle stroke-opacity="0.02" stroke="#000000" cx="20" cy="20" r="19.5"></circle>
                    <path d="M28.98625,17.525 C29.37875,14.905 27.3825,13.49625 24.655,12.55625 L25.54,9.00625 L23.38,8.46875 L22.5175,11.925 C21.95,11.7825 21.3675,11.65 20.78625,11.5175 L21.655,8.03875 L19.495,7.5 L18.61,11.04875 C18.14,10.94125 17.6775,10.83625 17.23,10.72375 L17.2325,10.7125 L14.2525,9.96875 L13.6775,12.27625 C13.6775,12.27625 15.28125,12.64375 15.2475,12.66625 C16.1225,12.885 16.28,13.46375 16.25375,13.92375 L15.24625,17.9675 C15.30625,17.9825 15.38375,18.005 15.47125,18.03875 L15.2425,17.9825 L13.83,23.6475 C13.7225,23.9125 13.45125,24.31125 12.83875,24.16 C12.86125,24.19125 11.26875,23.76875 11.26875,23.76875 L10.19625,26.24125 L13.00875,26.9425 C13.53125,27.07375 14.04375,27.21125 14.5475,27.34 L13.65375,30.93 L15.8125,31.4675 L16.6975,27.9175 C17.2875,28.07625 17.86,28.22375 18.42,28.36375 L17.5375,31.89875 L19.6975,32.43625 L20.59125,28.85375 C24.27625,29.55125 27.04625,29.27 28.2125,25.9375 C29.1525,23.255 28.16625,21.70625 26.2275,20.6975 C27.64,20.3725 28.7025,19.44375 28.98625,17.525 L28.98625,17.525 Z M24.04875,24.4475 C23.3825,27.13125 18.86375,25.68 17.39875,25.31625 L18.58625,20.56 C20.05125,20.92625 24.7475,21.65 24.04875,24.4475 Z M24.7175,17.48625 C24.10875,19.9275 20.34875,18.68625 19.13,18.3825 L20.205,14.07 C21.42375,14.37375 25.3525,14.94 24.7175,17.48625 Z" id="Shape" fill="#FFFFFF" fill-rule="nonzero" mask="url(#mask-4)"></path>
                </g>
            </g>
        </g>
    </g>
</svg>