<?xml version="1.0" encoding="UTF-8"?>
<svg width="40px" height="40px" viewBox="0 0 40 40" version="1.1" xmlns="http://www.w3.org/2000/svg" xmlns:xlink="http://www.w3.org/1999/xlink">
    <!-- Generator: Sketch 64 (93537) - https://sketch.com -->
    <title>Icons/Assets/Crypto/DASH</title>
    <desc>Created with Sketch.</desc>
    <defs>
        <circle id="path-1" cx="20" cy="20" r="20"></circle>
        <circle id="path-3" cx="20" cy="20" r="20"></circle>
    </defs>
    <g id="Icons/Assets/Crypto/DASH" stroke="none" stroke-width="1" fill="none" fill-rule="evenodd">
        <g id="Asset">
            <mask id="mask-2" fill="white">
                <use xlink:href="#path-1"></use>
            </mask>
            <use id="Mask" fill="#BCCAD8" xlink:href="#path-1"></use>
            <rect id="Rectangle-5" fill="#1C75BC" mask="url(#mask-2)" x="0" y="0" width="40" height="40"></rect>
            <g id="Group" mask="url(#mask-2)">
                <polygon id="Fill-1" fill="#3488C8" points="0 40 40 40 40 0 0 0"></polygon>
                <g id="Group-6" transform="translate(8.000000, 10.000000)" fill="#FEFEFE">
                    <path d="M15.356,0.8301 L7.123,0.8301 L6.44,4.6431 L13.87,4.6521 C17.529,4.6511 18.611,5.9811 18.58,8.1841 C18.564,9.3141 18.074,11.2241 17.863,11.8431 C17.298,13.4931 16.141,15.3761 11.797,15.3691 L4.576,15.3661 L3.892,19.1831 L12.107,19.1831 C15.004,19.1831 16.236,18.8461 17.542,18.2421 C20.434,16.9061 22.156,14.0521 22.845,10.3251 C23.873,4.7771 22.593,0.8301 15.356,0.8301" id="Fill-2"></path>
                    <path d="M3.5704,8.0913 C1.4134,8.0913 1.1054,9.4963 0.9014,10.3463 C0.6334,11.4583 0.5454,11.9083 0.5454,11.9083 L8.9754,11.9083 C11.1324,11.9083 11.4414,10.5033 11.6454,9.6533 C11.9124,8.5423 12.0004,8.0913 12.0004,8.0913 L3.5704,8.0913 Z" id="Fill-4"></path>
                </g>
            </g>
            <mask id="mask-4" fill="white">
                <use xlink:href="#path-3"></use>
            </mask>
            <circle stroke-opacity="0.02" stroke="#000000" cx="20" cy="20" r="19.5"></circle>
        </g>
    </g>
</svg>