<?xml version="1.0" encoding="UTF-8"?>
<svg width="40px" height="40px" viewBox="0 0 40 40" version="1.1" xmlns="http://www.w3.org/2000/svg" xmlns:xlink="http://www.w3.org/1999/xlink">
    <!-- Generator: Sketch 64 (93537) - https://sketch.com -->
    <title>Icons/Assets/Crypto/DOGE</title>
    <desc>Created with Sketch.</desc>
    <defs>
        <circle id="path-1" cx="20" cy="20" r="20"></circle>
        <circle id="path-3" cx="20" cy="20" r="20"></circle>
    </defs>
    <g id="Icons/Assets/Crypto/DOGE" stroke="none" stroke-width="1" fill="none" fill-rule="evenodd">
        <g id="Asset">
            <path d="M20,40 C8.954,40 0,31.046 0,20 C0,8.954 8.954,0 20,0 C31.046,0 40,8.954 40,20 C40,31.046 31.046,40 20,40 Z" id="Fill" fill="#C2A633"></path>
            <mask id="mask-2" fill="white">
                <use xlink:href="#path-1"></use>
            </mask>
            <circle stroke-opacity="0.02" stroke="#000000" cx="20" cy="20" r="19.5"></circle>
            <path d="M20.0922147,26.5528144 L17.1065004,26.5528144 L17.1065004,20.9417145 L21.5844822,20.9417145 L21.5844822,18.5922673 L17.1065004,18.5922673 L17.1065004,12.9808137 L19.9527698,12.9808137 C21.017332,12.9808137 26.3732109,13.4093159 26.3817788,20.0243743 C26.3903428,26.6394327 20.8593688,26.5528144 20.0922147,26.5528144 M19.2346207,9.00086536 L13.0428851,9.00086536 L13.0428851,18.5924745 L10.5,18.5924745 L10.5,20.9419217 L13.0430764,20.9419217 L13.0430764,30.5329411 L20.2573493,30.5329411 L20.2575565,30.5329411 C20.2575565,30.5329411 30.4013834,31.3831566 30.4013834,19.9468748 C30.4013834,8.69666832 20.6993976,9.00086536 19.2346207,9.00086536" id="Fill-1" fill="#FFFFFF" mask="url(#mask-2)"></path>
            <mask id="mask-4" fill="white">
                <use xlink:href="#path-3"></use>
            </mask>
            <circle stroke-opacity="0.02" stroke="#000000" cx="20" cy="20" r="19.5"></circle>
        </g>
    </g>
</svg>