<?xml version="1.0" encoding="UTF-8"?>
<svg width="40px" height="40px" viewBox="0 0 40 40" version="1.1" xmlns="http://www.w3.org/2000/svg" xmlns:xlink="http://www.w3.org/1999/xlink">
    <!-- Generator: Sketch 64 (93537) - https://sketch.com -->
    <title>Icons/Assets/Crypto/TRX</title>
    <desc>Created with Sketch.</desc>
    <defs>
        <circle id="path-1" cx="20" cy="20" r="20"></circle>
        <circle id="path-3" cx="20" cy="20" r="20"></circle>
    </defs>
    <g id="Icons/Assets/Crypto/TRX" stroke="none" stroke-width="1" fill="none" fill-rule="evenodd">
        <g id="Asset">
            <path d="M20,40 C8.954,40 0,31.046 0,20 C0,8.954 8.954,0 20,0 C31.046,0 40,8.954 40,20 C40,31.046 31.046,40 20,40 Z" id="Fill-1" fill="#DC062B"></path>
            <path d="M30.93125,15.3325 C29.9325,14.62375 28.86375,13.8675 27.81875,13.1175 C27.795,13.1 27.7725,13.0825 27.74375,13.065 C27.6212959,12.964443 27.4826598,12.8854035 27.33375,12.83125 L27.32125,12.825 C24.5250902,12.1388513 21.7296719,11.4496842 18.935,10.7575 L11.455,8.91125 L11.25875,8.85875 C11.03375,8.795 10.77375,8.72375 10.49625,8.75875 C10.4202399,8.77039422 10.3477051,8.79855479 10.28375,8.84125 L10.21375,8.9 C10.1260967,8.98987755 10.0591208,9.09780685 10.0175,9.21625 L10,9.26375 L10,9.5325 L10.0125,9.57375 C11.5875,14.055 13.205,18.60125 14.765,23 C15.96625,26.3875 17.215,29.895 18.4325,33.34 C18.5075,33.57375 18.72125,33.7275 18.9875,33.7502141 L19.045,33.7502141 C19.2819616,33.7560758 19.5033731,33.6324304 19.6225,33.4275 L24.1975,26.66125 C25.31125,25.015 26.42625,23.36375 27.54125,21.7175 L28.91,19.69 C29.66,18.5775 30.435,17.42875 31.20375,16.31 L31.24375,16.2525 L31.24375,16.18125 C31.26125,15.97625 31.26625,15.555 30.93125,15.33125 L30.93125,15.3325 Z M25.57125,17.79875 C24.49625,18.36625 23.4,18.9525 22.29625,19.5325 L24.22625,17.435 C25.02875,16.55625 25.86625,15.6475 26.68625,14.7575 L26.70375,14.74 C26.7725,14.64625 26.86,14.55875 26.9525,14.465 C27.015,14.40125 27.085,14.33625 27.14875,14.26 C27.57625,14.56 28.00875,14.86375 28.425,15.1625 C28.725,15.37875 29.03125,15.59625 29.34375,15.8125 C28.0818739,16.4662383 26.8243463,17.1283362 25.57125,17.79875 L25.57125,17.79875 Z M22.81125,17.5175 C21.985,18.425 21.13,19.35625 20.28125,20.27625 C18.6340158,18.249378 16.9819277,16.2264555 15.325,14.2075 L13.10125,11.495 L13.09625,11.48875 C12.92875,11.29625 12.76625,11.085 12.605,10.88625 C12.50125,10.75125 12.39125,10.6225 12.28125,10.4875 C12.95125,10.6625 13.6275,10.8275 14.29125,10.985 C14.875,11.12625 15.48125,11.2725 16.07625,11.425 L26.1325,13.9025 C25.0175,15.11 23.89625,16.33375 22.81125,17.5175 L22.81125,17.5175 Z M19.905,28.935 C19.96875,28.32 20.03875,27.6875 20.09625,27.06625 C20.14875,26.5675 20.2,26.05875 20.2525,25.5725 C20.3325,24.7925 20.42,23.985 20.49,23.19375 L20.50625,23.05375 C20.56375,22.54875 20.62125,22.02875 20.65625,21.50625 C20.7235159,21.4682805 20.7932562,21.434872 20.865,21.40625 C20.95125,21.36625 21.0375,21.33125 21.12375,21.27875 C22.4578999,20.567705 23.7941558,19.8606186 25.1325,19.1575 C26.4675,18.455 27.83625,17.7275 29.19375,17.0075 C27.9619972,18.8165526 26.7353257,20.6290598 25.51375,22.445 C24.48,23.9725 23.4175,25.54875 22.36,27.10125 C21.945,27.7225 21.51125,28.355 21.10125,28.96375 C20.63875,29.64375 20.165,30.34 19.70375,31.03875 C19.76125,30.335 19.83,29.62625 19.905,28.935 L19.905,28.935 Z M11.855,11.87 C11.78,11.65875 11.6975,11.4425 11.62875,11.2375 C13.18875,13.1475 14.75875,15.06875 16.29,16.93125 C17.08125,17.8975 17.8725,18.85875 18.66375,19.83125 C18.82,20.0125 18.97625,20.20625 19.12625,20.39375 C19.3225,20.63375 19.51875,20.88625 19.7325,21.12625 C19.6625,21.72875 19.605,22.33875 19.54125,22.92375 C19.50125,23.33375 19.46125,23.745 19.415,24.16125 L19.415,24.16625 C19.3975,24.42875 19.3625,24.69375 19.33375,24.95125 L19.20125,26.1175 L19.195,26.1575 C19.09125,27.34125 18.96375,28.53625 18.8425,29.69625 C18.79125,30.17625 18.745,30.66875 18.6925,31.16125 C18.66375,31.07375 18.63,30.985 18.6,30.9025 C18.5119394,30.6637397 18.4273471,30.4237144 18.34625,30.1825 L17.7275,28.4425 L11.85375,11.87 L11.855,11.87 Z" id="Shape" fill="#FFFFFF" fill-rule="nonzero"></path>
            <mask id="mask-2" fill="white">
                <use xlink:href="#path-1"></use>
            </mask>
            <circle stroke-opacity="0.02" stroke="#000000" cx="20" cy="20" r="19.5"></circle>
            <mask id="mask-4" fill="white">
                <use xlink:href="#path-3"></use>
            </mask>
            <circle stroke-opacity="0.02" stroke="#000000" cx="20" cy="20" r="19.5"></circle>
        </g>
    </g>
</svg>