<?xml version="1.0" encoding="utf-8"?>
<!-- Generator: Adobe Illustrator 24.0.2, SVG Export Plug-In . SVG Version: 6.00 Build 0)  -->
<!DOCTYPE svg PUBLIC "-//W3C//DTD SVG 1.1//EN" "http://www.w3.org/Graphics/SVG/1.1/DTD/svg11.dtd" [
	<!ENTITY ns_extend "http://ns.adobe.com/Extensibility/1.0/">
	<!ENTITY ns_ai "http://ns.adobe.com/AdobeIllustrator/10.0/">
	<!ENTITY ns_graphs "http://ns.adobe.com/Graphs/1.0/">
	<!ENTITY ns_vars "http://ns.adobe.com/Variables/1.0/">
	<!ENTITY ns_imrep "http://ns.adobe.com/ImageReplacement/1.0/">
	<!ENTITY ns_sfw "http://ns.adobe.com/SaveForWeb/1.0/">
	<!ENTITY ns_custom "http://ns.adobe.com/GenericCustomNamespace/1.0/">
	<!ENTITY ns_adobe_xpath "http://ns.adobe.com/XPath/1.0/">
]>
<svg version="1.1" id="Capa_1" xmlns:x="&ns_extend;" xmlns:i="&ns_ai;" xmlns:graph="&ns_graphs;"
	 xmlns="http://www.w3.org/2000/svg" xmlns:xlink="http://www.w3.org/1999/xlink" x="0px" y="0px" viewBox="0 0 220 78"
	 style="enable-background:new 0 0 220 78;" xml:space="preserve">
<style type="text/css">
	.st0{fill:#FFFFFF;}
</style>
<metadata>
	<sfw  xmlns="&ns_sfw;">
		<slices></slices>
		<sliceSourceBounds  bottomLeftOrigin="true" height="76" width="220" x="0" y="-88"></sliceSourceBounds>
	</sfw>
</metadata>
<g>
	<g>
		<g>
			<g>
				<path class="st0" d="M88.6,9l19.5,19.4L127.6,9v38.9h-6.4V24.6l-13,13L88.6,18V9z"/>
				<path class="st0" d="M158.2,9v6.5h-19.4L132.3,9H158.2z M138.7,25.2h19.4v6.5h-19.4h-6.5v-6.5H138.7z M138.7,41.4h19.4v6.5
					h-25.9v-0.5L138.7,41.4z"/>
				<path class="st0" d="M185.1,9v6.5h-12.9v32.4h-6.5V15.5V9H185.1z"/>
				<path class="st0" d="M216.6,28.4c2.3,2.2,3.4,4.9,3.4,8.1c0,1.6-0.3,3-0.9,4.4c-0.6,1.4-1.4,2.6-2.4,3.6c-1,1.1-2.2,1.8-3.6,2.5
					c-1.4,0.6-2.8,0.9-4.4,0.9h-14.6v-6.5h14.6c0.6,0,1.3-0.1,1.8-0.3c0.6-0.2,1.2-0.6,1.6-1.1c0.4-0.4,0.8-1,1-1.6
					c0.2-0.6,0.4-1.2,0.4-1.8c0-0.6-0.1-1.3-0.4-1.8c-0.2-0.6-0.6-1.1-1-1.6c-0.4-0.4-0.9-0.8-1.5-1.1c-0.6-0.2-1.3-0.4-1.9-0.4
					h-14.6h-6.5v-6.5h3.9h2.6h14.6c0.6,0,1.3-0.1,1.8-0.4c0.6-0.2,1.2-0.6,1.6-1.1c0.4-0.4,0.8-1,1-1.6c0.2-0.6,0.4-1.2,0.4-1.9
					c0-0.6-0.1-1.3-0.4-1.8c-0.2-0.6-0.6-1.1-1-1.6c-0.4-0.5-1-0.8-1.6-1.1c-0.6-0.2-1.2-0.3-1.8-0.3h-14.6L187.6,9h21
					c1.5,0,3,0.3,4.4,0.9c1.4,0.6,2.6,1.4,3.6,2.5c1,1,1.8,2.2,2.4,3.6c0.6,1.4,0.9,2.8,0.9,4.4C220,23.5,218.9,26.2,216.6,28.4z"/>
			</g>
			<g>
				<path class="st0" d="M93.5,57.3l-1.8,2.4h-0.2l-1.8-2.4v4.1h-1.1v-5.6h1.2l1.8,2.4l1.8-2.4h1.2v5.6h-1.1V57.3z"/>
				<path class="st0" d="M101.6,58.1l1.5-2.3h1.3v0l-2.2,3.2v2.3H101v-2.3l-2.2-3.2v0h1.3L101.6,58.1z"/>
				<path class="st0" d="M117.8,61.4h-4.2c0-1.9,0-3.7,0-5.6h4.2v1h-3.2v1.3h3v1h-3v1.3h3.2V61.4z"/>
				<path class="st0" d="M126.2,60.3h-2.9l-0.5,1.1h-1.1l2.5-5.6h1.2l2.5,5.6h-1.2L126.2,60.3z M124.8,57l-1,2.4h2.1L124.8,57z"/>
				<path class="st0" d="M135.3,57.1c-0.2-0.3-0.7-0.6-1.3-0.6c-0.8,0-1.2,0.3-1.2,0.7c0,0.5,0.6,0.6,1.3,0.7
					c1.2,0.1,2.3,0.4,2.3,1.8c0,1.3-1.1,1.8-2.4,1.8c-1.1,0-2-0.4-2.4-1.4l0.9-0.5c0.2,0.6,0.9,0.9,1.6,0.9c0.7,0,1.3-0.2,1.3-0.8
					c0-0.5-0.6-0.7-1.3-0.8c-1.1-0.1-2.2-0.4-2.2-1.7c0-1.2,1.1-1.6,2.2-1.6c0.9,0,1.8,0.2,2.2,1.1L135.3,57.1z"/>
				<path class="st0" d="M142.9,58.1l1.5-2.3h1.3v0l-2.2,3.2v2.3h-1.1v-2.3l-2.2-3.2v0h1.3L142.9,58.1z"/>
				<path class="st0" d="M156.4,56.7h-1.8v-1c1.6,0,3,0,4.6,0v1h-1.8v4.6h-1.1V56.7z"/>
				<path class="st0" d="M168.5,61.4h-1.3l-1.6-1.9h-1v1.9h-1.1v-5.6c0.9,0,1.8,0,2.7,0c1.3,0,2,0.9,2,1.9c0,0.8-0.4,1.5-1.4,1.8
					L168.5,61.4L168.5,61.4z M164.5,56.8v1.8h1.6c0.7,0,1-0.4,1-0.9c0-0.4-0.3-0.9-1-0.9H164.5z"/>
				<path class="st0" d="M178,58.6c0,1.5-0.9,2.9-2.9,2.9c-2,0-2.9-1.4-2.9-2.9c0-1.5,0.9-3,2.9-3C177.1,55.7,178,57.2,178,58.6z
					 M173.3,58.6c0,0.9,0.5,1.9,1.8,1.9c1.3,0,1.8-1,1.8-1.9c0-0.9-0.5-2-1.8-2C173.8,56.6,173.3,57.7,173.3,58.6z"/>
				<path class="st0" d="M186.1,55.8h1.1v5.6h-0.7v0l-3-3.8v3.8h-1.1v-5.6h0.9l2.7,3.5V55.8z"/>
				<path class="st0" d="M201.5,57.4c0,0.4-0.2,0.8-0.7,1.1c0.7,0.2,0.9,0.9,0.9,1.3c0,1.3-0.9,1.7-2.1,1.7c-0.9,0-1.8,0-2.7,0v-5.6
					c0.9,0,1.8,0,2.7,0C200.7,55.8,201.5,56.3,201.5,57.4z M198,58h1.6c0.7,0,0.9-0.3,0.9-0.6c0-0.3-0.2-0.7-0.9-0.7H198V58z
					 M198,60.4h1.6c0.4,0,1.1-0.1,1.1-0.7c0-0.5-0.6-0.8-1.1-0.8H198V60.4z"/>
				<path class="st0" d="M211.7,58.6c0,1.5-0.9,2.9-2.9,2.9s-2.9-1.4-2.9-2.9c0-1.5,0.9-3,2.9-3C210.7,55.7,211.7,57.2,211.7,58.6z
					 M206.9,58.6c0,0.9,0.5,1.9,1.8,1.9c1.3,0,1.8-1,1.8-1.9c0-0.9-0.5-2-1.8-2C207.5,56.6,206.9,57.7,206.9,58.6z"/>
				<path class="st0" d="M217.2,56.7h-1.8v-1c1.6,0,3,0,4.6,0v1h-1.8v4.6h-1.1V56.7z"/>
			</g>
		</g>
		<g>
			<path class="st0" d="M65.7,21.6L65,20.2l4.6-2.4C62.9,7.9,51.8,1.3,39.1,1v5.7h-1.6V1C24.8,1.2,13.7,7.5,6.9,17.1l4.9,2.6
				l-0.7,1.4l-5-2.7c-3.8,5.9-6,13-6,20.5c0,3.7,0.5,7.3,1.5,10.8L6.9,48l0.5,1.5L2,51.3C7.1,66.3,21.3,77,38,77
				c16.5,0,30.6-10.6,35.8-25.3L68.5,50l0.5-1.5l5.4,1.7c1.1-3.5,1.7-7.3,1.7-11.2c0-7.3-2.1-14.1-5.6-19.9L65.7,21.6z M62.8,21.2
				c1.2,1.6,0.8,3.9-0.9,5c-1.4,1-3.3,0.8-4.5-0.3l-4.8,3.4l-0.9-1.3l4.8-3.4c-0.6-1.5-0.1-3.3,1.3-4.3
				C59.4,19.2,61.7,19.6,62.8,21.2z M47.4,51.2c-2.4,1.8-5.4,2.9-8.7,3c0,0,0,0-0.1,0c-0.1,0-0.2,0-0.3,0c0,0-0.1,0-0.1,0
				c0,0-0.1,0-0.1,0c0,0,0,0-0.1,0c0,0,0,0,0,0c-4.2-0.1-7.9-1.8-10.6-4.6c0,0,0,0-0.1-0.1c-0.1-0.1-0.1-0.1-0.2-0.2
				c-0.1-0.1-0.1-0.1-0.2-0.2c0,0,0,0-0.1-0.1c-1.3-1.4-2.3-3.1-3-4.9c0,0,0-0.1,0-0.1c0-0.1,0-0.1-0.1-0.2c0-0.1-0.1-0.2-0.1-0.3
				c0,0,0,0,0,0c-0.5-1.5-0.7-3-0.7-4.7c0-1.2,0.2-2.5,0.4-3.6c0-0.1,0-0.1,0-0.2c0,0,0,0,0,0c1.7-6.5,7.5-11.4,14.7-11.4
				c0,0,0.1,0,0.1,0c0,0,0.1,0,0.1,0c0,0,0,0,0,0c0,0,0,0,0,0c0.8,0,1.5,0.1,2.3,0.2c0.1,0,0.1,0,0.2,0c0,0,0.1,0,0.1,0
				c5.1,0.9,9.2,4.2,11.1,8.7c0,0,0,0,0,0.1c0,0.1,0,0.1,0.1,0.2c0.8,1.9,1.3,3.9,1.3,6.1C53.6,43.9,51.1,48.4,47.4,51.2z M55,5.9
				l1.2,0.6l-9.3,17.7l-1.2-0.6L55,5.9z M39.1,15.9v5.9h-1.6v-5.9c-1.6-0.4-2.8-1.8-2.8-3.5c0-2,1.6-3.6,3.6-3.6
				c2,0,3.6,1.6,3.6,3.6C41.9,14.1,40.7,15.5,39.1,15.9z M21.5,5.8l9.3,17.7l-1.2,0.6L20.3,6.4L21.5,5.8z M13.8,21.2
				c1.2-1.6,3.4-2,5-0.9c1.4,1,1.9,2.8,1.3,4.3l4.8,3.4L24,29.4L19.2,26c-1.2,1.1-3.1,1.3-4.5,0.3C13.1,25.1,12.7,22.8,13.8,21.2z
				 M1.9,32.2l19.8,3.3l-0.2,1.3L1.7,33.5L1.9,32.2z M9.4,48.1c-0.6-1.9,0.4-3.9,2.3-4.5c1.7-0.5,3.4,0.2,4.2,1.6l5.6-1.8l0.5,1.5
				l-5.6,1.8c0.1,1.6-0.9,3.2-2.5,3.7C12.1,51,10,49.9,9.4,48.1z M13,66.2C41.9,47.7,63,66,63,66C36.4,88.9,13,66.2,13,66.2z
				 M67.1,48.1c-0.6,1.9-2.6,2.9-4.5,2.3c-1.6-0.5-2.6-2.1-2.5-3.7l-5.6-1.8l0.5-1.5l5.6,1.8c0.8-1.5,2.6-2.2,4.2-1.6
				C66.7,44.1,67.7,46.2,67.1,48.1z M74.8,33.5l-19.8,3.3l-0.2-1.3l19.8-3.3L74.8,33.5z"/>
		</g>
	</g>
</g>
</svg>
